<?xml version="1.0" encoding="utf-8"?>
<!-- Generator: Adobe Illustrator 24.2.3, SVG Export Plug-In . SVG Version: 6.00 Build 0)  -->
<svg version="1.1" id="Camada_1" xmlns="http://www.w3.org/2000/svg" xmlns:xlink="http://www.w3.org/1999/xlink" x="0px" y="0px"
	 viewBox="0 0 50.6 69.8" style="enable-background:new 0 0 50.6 69.8;" xml:space="preserve">
<g id="Regular-M" transform="matrix(1 0 0 1 1412.1 1126)">
	<path d="M-1408.2-1056.2h30.9c2.3,0,4-1.4,4-3.7c0-2.2-1.6-3.6-3.9-3.6h-10.9l11.9-55.2h10.9c2.3,0,3.9-1.4,3.9-3.7
		c0-2.2-1.6-3.6-3.9-3.6h-31c-2.3,0-3.9,1.4-3.9,3.6c0,2.3,1.6,3.7,3.9,3.7h10.9l-11.9,55.2h-11c-2.3,0-3.9,1.4-3.9,3.6
		C-1412.1-1057.6-1410.5-1056.2-1408.2-1056.2z"/>
</g>
</svg>
