<?xml version="1.0" encoding="utf-8"?>
<!-- Generator: Adobe Illustrator 24.2.3, SVG Export Plug-In . SVG Version: 6.00 Build 0)  -->
<svg version="1.1" id="Camada_1" xmlns="http://www.w3.org/2000/svg" xmlns:xlink="http://www.w3.org/1999/xlink" x="0px" y="0px"
	 viewBox="0 0 86.7 110.2" style="enable-background:new 0 0 86.7 110.2;" xml:space="preserve">
<g id="Regular-M" transform="matrix(1 0 0 1 1394.06 1126)">
	<path d="M-1350.7-1054c2.1,0,3.9-1.8,3.9-3.8v-50.1l-0.3-7.3l3.3,3.5l7.4,7.9c0.7,0.8,1.7,1.2,2.6,1.2c2,0,3.6-1.5,3.6-3.5
		c0-1-0.4-1.8-1.2-2.5l-16.5-15.9c-1-1-1.8-1.3-2.8-1.3c-1,0-1.9,0.3-2.8,1.3l-16.5,15.9c-0.7,0.7-1.2,1.5-1.2,2.5
		c0,2,1.5,3.5,3.5,3.5c0.9,0,2-0.4,2.7-1.2l7.4-7.9l3.3-3.5l-0.3,7.3v50.1C-1354.6-1055.8-1352.8-1054-1350.7-1054z M-1378.7-1015.8
		h56c10.2,0,15.3-5.1,15.3-15.1v-48.7c0-10.1-5.1-15.1-15.3-15.1h-13.6v7.9h13.5c4.8,0,7.6,2.6,7.6,7.7v47.9c0,5.1-2.8,7.7-7.6,7.7
		h-55.8c-4.9,0-7.6-2.6-7.6-7.7v-47.9c0-5.1,2.7-7.7,7.6-7.7h13.5v-7.9h-13.6c-10.2,0-15.3,5.1-15.3,15.1v48.7
		C-1394.1-1020.9-1388.9-1015.8-1378.7-1015.8z"/>
</g>
</svg>
