<?xml version="1.0" encoding="utf-8"?>
<!-- Generator: Adobe Illustrator 25.0.0, SVG Export Plug-In . SVG Version: 6.00 Build 0)  -->
<svg version="1.1" id="Camada_1" xmlns="http://www.w3.org/2000/svg" xmlns:xlink="http://www.w3.org/1999/xlink" x="0px" y="0px"
	 viewBox="0 0 58.1 69.8" style="enable-background:new 0 0 58.1 69.8;" xml:space="preserve">
<style type="text/css">
	.st0{fill:#FFFFFF;}
</style>
<g id="Regular-M" transform="matrix(1 0 0 1 1408.36 1126)">
	<path class="st0" d="M-1400.1-1056.2h25.4c14.9,0,24.4-7.9,24.4-19.9c0-9.5-6.9-16.4-16.8-16.9v-0.4c8.1-1.1,13.6-7.2,13.6-15
		c0-10.9-8.3-17.6-21.9-17.6h-24.8c-5.2,0-8.3,3.1-8.3,8.4v53C-1408.4-1059.3-1405.3-1056.2-1400.1-1056.2z M-1392.2-1097v-17.5h12
		c6.8,0,10.9,3.1,10.9,8.5c0,5.7-4.5,9-12.1,9H-1392.2z M-1392.2-1067.5v-19.4h12.3c8.5,0,13.3,3.3,13.3,9.6c0,6.4-4.6,9.8-13,9.8
		H-1392.2z"/>
</g>
</svg>
