<?xml version="1.0" encoding="utf-8"?>
<!-- Generator: Adobe Illustrator 25.0.0, SVG Export Plug-In . SVG Version: 6.00 Build 0)  -->
<svg version="1.1" id="Camada_1" xmlns="http://www.w3.org/2000/svg" xmlns:xlink="http://www.w3.org/1999/xlink" x="0px" y="0px"
	 viewBox="0 0 98.4 71.3" style="enable-background:new 0 0 98.4 71.3;" xml:space="preserve">
<style type="text/css">
	.st0{fill:#FFFFFF;}
</style>
<g id="Regular-M" transform="matrix(1 0 0 1 1388.2 1126)">
	<path class="st0" d="M-1382-1113.7c3.4,0,6.2-2.7,6.2-6.1s-2.7-6.2-6.2-6.2c-3.4,0-6.2,2.7-6.2,6.2
		C-1388.2-1116.5-1385.5-1113.7-1382-1113.7z M-1360.5-1115.9h66.7c2.2,0,4-1.7,4-3.9c0-2.2-1.8-4-4-4h-66.7c-2.2,0-4,1.7-4,4
		C-1364.4-1117.7-1362.7-1115.9-1360.5-1115.9z M-1382-1084.2c3.4,0,6.2-2.7,6.2-6.2s-2.7-6.2-6.2-6.2c-3.4,0-6.2,2.7-6.2,6.2
		S-1385.5-1084.2-1382-1084.2z M-1360.5-1086.4h66.7c2.2,0,4-1.8,4-4s-1.8-3.9-4-3.9h-66.7c-2.2,0-4,1.7-4,3.9
		S-1362.7-1086.4-1360.5-1086.4z M-1382-1054.7c3.4,0,6.2-2.8,6.2-6.2c0-3.4-2.7-6.2-6.2-6.2c-3.4,0-6.2,2.7-6.2,6.2
		C-1388.2-1057.4-1385.5-1054.7-1382-1054.7z M-1360.5-1056.9h66.7c2.2,0,4-1.7,4-3.9c0-2.2-1.8-4-4-4h-66.7c-2.2,0-4,1.7-4,4
		C-1364.4-1058.6-1362.7-1056.9-1360.5-1056.9z"/>
</g>
</svg>
