<?xml version="1.0" encoding="utf-8"?>
<!-- Generator: Adobe Illustrator 25.0.0, SVG Export Plug-In . SVG Version: 6.00 Build 0)  -->
<svg version="1.1" id="Camada_1" xmlns="http://www.w3.org/2000/svg" xmlns:xlink="http://www.w3.org/1999/xlink" x="0px" y="0px"
	 viewBox="0 0 98.4 82.3" style="enable-background:new 0 0 98.4 82.3;" xml:space="preserve">
<style type="text/css">
	.st0{fill:#FFFFFF;}
</style>
<g id="Regular-M" transform="matrix(1 0 0 1 1388.2 1126)">
	<path class="st0" d="M-1377.6-1103.6c1.9,0,3.2-1.1,3.2-3.3v-15.8c0-2.1-1.5-3.4-3.6-3.4c-1.7,0-2.8,0.6-4,1.4l-3.5,2.4
		c-1,0.7-1.5,1.3-1.5,2.3c0,1.3,1,2.1,2.1,2.1c0.6,0,0.9-0.1,1.8-0.7l2.2-1.5h0.1v13C-1380.8-1104.7-1379.5-1103.6-1377.6-1103.6z
		 M-1360.6-1109.5h66.8c2.2,0,4-1.7,4-3.9c0-2.2-1.8-4-4-4h-66.8c-2.2,0-4,1.7-4,4C-1364.6-1111.2-1362.8-1109.5-1360.6-1109.5z
		 M-1385.4-1074.1h12.5c1.3,0,2.3-0.9,2.3-2.3c0-1.5-1-2.4-2.3-2.4h-7v-0.1l4-3.2c3.3-2.7,4.6-4.3,4.6-7.2c0-3.9-3.3-6.5-8.5-6.5
		c-4.7,0-8.1,2.4-8.1,5.6c0,1.6,1,2.4,2.7,2.4c1.1,0,1.9-0.3,2.5-1.5c0.7-1.2,1.6-1.8,2.9-1.8c1.4,0,2.4,0.9,2.4,2.3
		c0,1.2-0.6,2.2-3.1,4.2l-6.4,5.3c-1,0.8-1.4,1.7-1.4,2.7C-1388.1-1075.2-1387-1074.1-1385.4-1074.1z M-1360.6-1080h66.8
		c2.2,0,4-1.8,4-4s-1.8-3.9-4-3.9h-66.8c-2.2,0-4,1.7-4,3.9S-1362.8-1080-1360.6-1080z M-1379.7-1043.7c5.8,0,9.2-2.6,9.2-6.7
		c0-2.7-1.9-4.5-5.2-4.8v-0.1c2.4-0.4,4.4-2.1,4.4-4.9c0-3.7-3.6-5.8-8.4-5.8c-3.8,0-8,1.8-8,5c0,1.4,1,2.3,2.5,2.3
		c1.1,0,1.6-0.4,2.2-1.2c1.1-1.2,2-1.6,3.2-1.6c1.5,0,2.6,0.7,2.6,2.2c0,1.4-1.2,2.1-3.2,2.1h-0.5c-1.4,0-2.2,0.7-2.2,2.1
		c0,1.3,0.8,2.1,2.2,2.1h0.6c2.2,0,3.4,0.7,3.4,2.2c0,1.3-1.2,2.3-2.9,2.3c-1.7,0-2.9-1-3.9-1.9c-0.6-0.5-1.1-0.9-2-0.9
		c-1.6,0-2.7,0.9-2.7,2.4C-1388.2-1045.5-1383.6-1043.7-1379.7-1043.7z M-1360.6-1050.5h66.8c2.2,0,4-1.7,4-3.9c0-2.2-1.8-4-4-4
		h-66.8c-2.2,0-4,1.7-4,4C-1364.6-1052.2-1362.8-1050.5-1360.6-1050.5z"/>
</g>
</svg>
