<?xml version="1.0" encoding="utf-8"?>
<!-- Generator: Adobe Illustrator 25.0.0, SVG Export Plug-In . SVG Version: 6.00 Build 0)  -->
<svg version="1.1" id="Camada_1" xmlns="http://www.w3.org/2000/svg" xmlns:xlink="http://www.w3.org/1999/xlink" x="0px" y="0px"
	 viewBox="0 0 80.6 72.2" style="enable-background:new 0 0 80.6 72.2;" xml:space="preserve">
<style type="text/css">
	.st0{fill:#FFFFFF;}
</style>
<g id="Regular-M" transform="matrix(1 0 0 1 1397.09 1126)">
	<path class="st0" d="M-1395.1-1088.5h28.3c1.2,0.4,2.5,0.8,4,1.1l9,2.1c10.2,2.4,14.4,5.8,14.4,11.6c0,7-7.2,12.1-17.4,12.1
		c-9,0-15.8-4.1-18.3-11c-0.9-2.1-2-3-4-3c-2.6,0-4.2,1.6-4.2,4.2c0,0.9,0.1,1.8,0.4,2.7c2.6,9.2,12.7,15,26.2,15
		c16.2,0,26.6-8.3,26.6-21c0-6.1-2.2-10.5-7.2-13.8h18.9c1.1,0,2-0.9,2-2s-0.9-2-2-2h-28c-1.4-0.4-2.8-0.8-4.3-1.2l-8-1.9
		c-9.9-2.4-14.1-5.4-14.1-10.8c0-6.8,6.7-11.7,16.1-11.7c8.4,0,14.4,3.8,16.8,10.5c0.8,1.9,2,2.7,3.9,2.7c2.5,0,4.1-1.5,4.1-3.9
		c0-0.7-0.1-1.5-0.3-2.2c-2.2-8.9-12-15-24.5-15c-14.7,0-25.3,8.3-25.3,20.2c0,5.8,2.1,10.1,6.7,13.3h-19.7c-1.1,0-2,0.9-2,2
		S-1396.2-1088.5-1395.1-1088.5z"/>
</g>
</svg>
