<?xml version="1.0" encoding="utf-8"?>
<!-- Generator: Adobe Illustrator 25.0.0, SVG Export Plug-In . SVG Version: 6.00 Build 0)  -->
<svg version="1.1" id="Camada_1" xmlns="http://www.w3.org/2000/svg" xmlns:xlink="http://www.w3.org/1999/xlink" x="0px" y="0px"
	 viewBox="0 0 56.9 87.2" style="enable-background:new 0 0 56.9 87.2;" xml:space="preserve">
<style type="text/css">
	.st0{fill:#FFFFFF;}
</style>
<g id="Regular-M" transform="matrix(1 0 0 1 1408.95 1126)">
	<path class="st0" d="M-1380.5-1053.8c17.6,0,28.5-10.5,28.5-25.9v-41.8c0-2.7-1.8-4.5-4.6-4.5c-2.7,0-4.4,1.8-4.4,4.5v41.1
		c0,10.9-7.2,18.3-19.4,18.3c-12.2,0-19.4-7.4-19.4-18.3v-41.1c0-2.7-1.8-4.5-4.6-4.5c-2.7,0-4.4,1.8-4.4,4.5v41.8
		C-1408.9-1064.3-1398.1-1053.8-1380.5-1053.8z M-1406.1-1038.8h51.1c1.6,0,2.9-1.2,2.9-2.9c0-1.7-1.3-2.9-2.9-2.9h-51.1
		c-1.6,0-2.9,1.3-2.9,2.9C-1408.9-1040-1407.6-1038.8-1406.1-1038.8z"/>
</g>
</svg>
