<?xml version="1.0" encoding="utf-8"?>
<!-- Generator: Adobe Illustrator 25.0.0, SVG Export Plug-In . SVG Version: 6.00 Build 0)  -->
<svg version="1.1" id="Camada_1" xmlns="http://www.w3.org/2000/svg" xmlns:xlink="http://www.w3.org/1999/xlink" x="0px" y="0px"
	 viewBox="0 0 99.6 99.6" style="enable-background:new 0 0 99.6 99.6;" xml:space="preserve">
<style type="text/css">
	.st0{fill:#007AFF;}
</style>
<g id="Regular-M" transform="matrix(1 0 0 1 1391.3 1126)">
	<path class="st0" d="M-1341.5-1026.4c27.2,0,49.8-22.6,49.8-49.8c0-27.2-22.6-49.8-49.9-49.8c-27.2,0-49.8,22.6-49.8,49.8
		C-1391.3-1048.9-1368.7-1026.4-1341.5-1026.4z M-1341.5-1034.7c-23,0-41.5-18.5-41.5-41.5s18.4-41.5,41.4-41.5s41.5,18.5,41.6,41.5
		C-1299.9-1053.1-1318.4-1034.7-1341.5-1034.7z M-1366.6-1076.2c0,1.1,0.4,2,1.4,2.9l16.5,16.6c0.6,0.6,1.5,1,2.5,1
		c2,0,3.5-1.6,3.5-3.6c0-1.1-0.4-2-1.1-2.6l-6.1-6l-5.9-5l10.4,0.4h25.4c2.1,0,3.7-1.6,3.7-3.7s-1.6-3.7-3.7-3.7h-25.4l-10.3,0.4
		l5.9-4.9l6.1-6.1c0.6-0.6,1.1-1.5,1.1-2.6c0-2-1.5-3.5-3.5-3.5c-1,0-1.9,0.3-2.5,1l-16.5,16.6
		C-1366.2-1078.1-1366.6-1077.3-1366.6-1076.2z"/>
</g>
</svg>
